<svg xmlns="http://www.w3.org/2000/svg" xmlns:xlink="http://www.w3.org/1999/xlink" width="500" zoomAndPan="magnify" viewBox="0 0 375 374.999991" height="500" preserveAspectRatio="xMidYMid meet" version="1.0"><defs><g/><clipPath id="7a4fdf5b9c"><path d="M 37.5 129.191406 L 134.410156 129.191406 L 134.410156 245.109375 L 37.5 245.109375 Z M 37.5 129.191406 " clip-rule="nonzero"/></clipPath></defs><rect x="-37.5" width="450" fill="#ffffff" y="-37.499999" height="449.999989" fill-opacity="1"/><rect x="-37.5" width="450" fill="#ffffff" y="-37.499999" height="449.999989" fill-opacity="1"/><g clip-path="url(#7a4fdf5b9c)"><path fill="#004aad" d="M 85.882812 128.882812 L 85.882812 128.886719 Z M 85.882812 128.882812 L 85.882812 128.886719 L 85.882812 128.882812 L 85.882812 128.886719 Z M 85.882812 131.761719 Z M 85.882812 131.761719 Z M 85.882812 131.761719 Z M 85.882812 131.761719 Z M 85.882812 131.761719 L 85.882812 187.179688 Z M 85.882812 128.882812 L 37.53125 143.027344 C 37.503906 162.53125 38.109375 177.007812 39.351562 186.460938 C 39.816406 190.273438 40.429688 193.925781 41.1875 197.414062 L 42.464844 202.496094 C 43.398438 205.792969 44.535156 208.867188 45.871094 211.71875 C 47.222656 214.558594 48.773438 217.175781 50.523438 219.570312 C 51.203125 220.984375 54.195312 224.175781 59.496094 229.144531 C 64.972656 233.921875 73.765625 239.363281 85.882812 245.472656 L 85.882812 242.59375 L 85.882812 242.597656 L 85.882812 131.761719 L 85.882812 242.59375 C 74.363281 236.789062 66.003906 231.617188 60.796875 227.074219 C 55.757812 222.351562 52.914062 219.316406 52.269531 217.972656 C 50.601562 215.695312 49.128906 213.207031 47.847656 210.511719 C 46.574219 207.796875 45.496094 204.875 44.609375 201.742188 L 43.394531 196.910156 C 42.671875 193.589844 42.089844 190.121094 41.644531 186.496094 C 40.46875 177.511719 39.890625 163.746094 39.917969 145.203125 L 85.882812 131.761719 Z M 85.882812 128.882812 L 85.882812 131.761719 L 131.847656 145.203125 C 131.875 163.746094 131.296875 177.511719 130.117188 186.496094 C 129.675781 190.121094 129.09375 193.589844 128.371094 196.910156 L 127.15625 201.742188 C 126.269531 204.875 125.1875 207.796875 123.917969 210.511719 C 122.636719 213.207031 121.160156 215.695312 119.496094 217.972656 C 118.847656 219.316406 116.007812 222.351562 110.964844 227.074219 C 105.761719 231.617188 97.398438 236.789062 85.882812 242.597656 L 85.882812 187.179688 L 85.882812 245.472656 C 97.996094 239.363281 106.792969 233.921875 112.269531 229.144531 C 117.570312 224.175781 120.558594 220.984375 121.238281 219.570312 C 122.992188 217.175781 124.542969 214.558594 125.890625 211.71875 C 127.230469 208.867188 128.363281 205.792969 129.296875 202.496094 L 130.574219 197.414062 C 131.335938 193.925781 131.949219 190.273438 132.414062 186.460938 C 133.652344 177.007812 134.257812 162.53125 134.234375 143.027344 Z M 85.882812 128.882812 " fill-opacity="1" fill-rule="nonzero"/></g><path fill="#004aad" d="M 85.882812 134.632812 Z M 85.882812 134.632812 Z M 85.882812 134.632812 L 42.296875 147.378906 C 42.273438 164.960938 42.820312 178.011719 43.9375 186.53125 C 44.359375 189.96875 44.910156 193.257812 45.59375 196.40625 L 46.746094 200.984375 C 47.585938 203.957031 48.609375 206.730469 49.816406 209.300781 C 51.03125 211.859375 52.429688 214.21875 54.011719 216.378906 C 54.621094 217.652344 57.316406 220.527344 62.097656 225.007812 C 67.035156 229.3125 74.960938 234.21875 85.882812 239.726562 Z M 85.882812 134.632812 L 85.882812 239.726562 C 96.800781 234.21875 104.730469 229.3125 109.667969 225.007812 C 114.445312 220.527344 117.140625 217.652344 117.753906 216.378906 C 119.332031 214.21875 120.730469 211.859375 121.949219 209.300781 C 123.152344 206.730469 124.175781 203.957031 125.019531 200.984375 L 126.167969 196.40625 C 126.855469 193.257812 127.40625 189.96875 127.828125 186.53125 C 128.945312 178.011719 129.492188 164.960938 129.464844 147.378906 Z M 85.882812 134.632812 " fill-opacity="1" fill-rule="nonzero"/><g fill="#ffffff" fill-opacity="1"><g transform="translate(68.486983, 199.572541)"><g><path d="M 8.421875 -6.96875 C 8.421875 -6.019531 8.46875 -5.25 8.5625 -4.65625 C 8.65625 -4.0625 8.878906 -3.597656 9.234375 -3.265625 C 9.597656 -2.941406 10.117188 -2.71875 10.796875 -2.59375 C 11.472656 -2.46875 12.390625 -2.40625 13.546875 -2.40625 C 15.898438 -2.40625 18 -2.738281 19.84375 -3.40625 C 21.695312 -4.082031 23.265625 -5.054688 24.546875 -6.328125 C 25.835938 -7.597656 26.820312 -9.132812 27.5 -10.9375 C 28.175781 -12.738281 28.515625 -14.785156 28.515625 -17.078125 C 28.515625 -19.367188 28.207031 -21.4375 27.59375 -23.28125 C 26.976562 -25.132812 26.035156 -26.710938 24.765625 -28.015625 C 23.492188 -29.316406 21.878906 -30.3125 19.921875 -31 C 17.960938 -31.6875 15.648438 -32.03125 12.984375 -32.03125 C 12.015625 -32.03125 11.226562 -31.96875 10.625 -31.84375 C 10.03125 -31.71875 9.566406 -31.488281 9.234375 -31.15625 C 8.910156 -30.832031 8.691406 -30.378906 8.578125 -29.796875 C 8.472656 -29.222656 8.421875 -28.476562 8.421875 -27.5625 Z M 13.453125 -34.4375 C 15.273438 -34.4375 16.851562 -34.359375 18.1875 -34.203125 C 19.519531 -34.046875 20.691406 -33.816406 21.703125 -33.515625 C 22.722656 -33.222656 23.632812 -32.863281 24.4375 -32.4375 C 25.238281 -32.007812 26.015625 -31.53125 26.765625 -31 C 27.992188 -30.15625 29.019531 -29.179688 29.84375 -28.078125 C 30.675781 -26.984375 31.351562 -25.832031 31.875 -24.625 C 32.394531 -23.414062 32.765625 -22.175781 32.984375 -20.90625 C 33.203125 -19.632812 33.3125 -18.390625 33.3125 -17.171875 C 33.3125 -15.316406 32.992188 -13.378906 32.359375 -11.359375 C 31.734375 -9.335938 30.722656 -7.488281 29.328125 -5.8125 C 27.929688 -4.132812 26.101562 -2.742188 23.84375 -1.640625 C 21.59375 -0.546875 18.820312 0 15.53125 0 L 2.875 0 C 2.269531 0 1.863281 -0.09375 1.65625 -0.28125 C 1.457031 -0.46875 1.359375 -0.734375 1.359375 -1.078125 C 1.359375 -1.515625 1.507812 -1.804688 1.8125 -1.953125 C 2.113281 -2.097656 2.4375 -2.21875 2.78125 -2.3125 C 3.125 -2.40625 3.441406 -2.5625 3.734375 -2.78125 C 4.035156 -3 4.1875 -3.40625 4.1875 -4 L 4.1875 -31.1875 C 4.1875 -31.46875 4.046875 -31.671875 3.765625 -31.796875 C 3.484375 -31.921875 3.160156 -32.03125 2.796875 -32.125 C 2.441406 -32.226562 2.117188 -32.363281 1.828125 -32.53125 C 1.546875 -32.707031 1.40625 -32.984375 1.40625 -33.359375 C 1.40625 -34.078125 1.910156 -34.4375 2.921875 -34.4375 Z M 13.453125 -34.4375 "/></g></g></g><g fill="#004aad" fill-opacity="1"><g transform="translate(150.703135, 198.000529)"><g><path d="M 12.28125 -6.484375 C 12.28125 -5.835938 12.328125 -5.320312 12.421875 -4.9375 C 12.515625 -4.550781 12.640625 -4.257812 12.796875 -4.0625 C 12.960938 -3.863281 13.164062 -3.734375 13.40625 -3.671875 C 13.644531 -3.617188 13.910156 -3.59375 14.203125 -3.59375 C 15.503906 -3.59375 16.695312 -3.894531 17.78125 -4.5 C 18.863281 -5.101562 19.785156 -5.914062 20.546875 -6.9375 C 21.304688 -7.96875 21.890625 -9.148438 22.296875 -10.484375 C 22.710938 -11.816406 22.921875 -13.203125 22.921875 -14.640625 C 22.921875 -16.078125 22.710938 -17.457031 22.296875 -18.78125 C 21.890625 -20.101562 21.304688 -21.273438 20.546875 -22.296875 C 19.785156 -23.328125 18.867188 -24.148438 17.796875 -24.765625 C 16.734375 -25.378906 15.535156 -25.6875 14.203125 -25.6875 C 13.453125 -25.6875 12.941406 -25.460938 12.671875 -25.015625 C 12.410156 -24.578125 12.28125 -23.835938 12.28125 -22.796875 Z M 17.40625 -29.28125 C 19.613281 -29.28125 21.664062 -28.972656 23.5625 -28.359375 C 25.457031 -27.742188 27.097656 -26.820312 28.484375 -25.59375 C 29.867188 -24.375 30.953125 -22.847656 31.734375 -21.015625 C 32.523438 -19.191406 32.921875 -17.066406 32.921875 -14.640625 C 32.921875 -12.078125 32.492188 -9.867188 31.640625 -8.015625 C 30.785156 -6.160156 29.644531 -4.640625 28.21875 -3.453125 C 26.789062 -2.273438 25.144531 -1.40625 23.28125 -0.84375 C 21.414062 -0.28125 19.457031 0 17.40625 0 L 2.953125 0 C 2.398438 0 1.960938 -0.0507812 1.640625 -0.15625 C 1.316406 -0.257812 1.078125 -0.390625 0.921875 -0.546875 C 0.765625 -0.710938 0.664062 -0.890625 0.625 -1.078125 C 0.582031 -1.265625 0.5625 -1.4375 0.5625 -1.59375 C 0.5625 -2.101562 0.671875 -2.460938 0.890625 -2.671875 C 1.117188 -2.890625 1.359375 -3.070312 1.609375 -3.21875 C 1.867188 -3.363281 2.113281 -3.539062 2.34375 -3.75 C 2.570312 -3.96875 2.6875 -4.316406 2.6875 -4.796875 L 2.6875 -24.484375 C 2.6875 -24.984375 2.570312 -25.332031 2.34375 -25.53125 C 2.113281 -25.738281 1.867188 -25.921875 1.609375 -26.078125 C 1.359375 -26.234375 1.117188 -26.410156 0.890625 -26.609375 C 0.671875 -26.816406 0.5625 -27.175781 0.5625 -27.6875 C 0.5625 -27.84375 0.582031 -28.015625 0.625 -28.203125 C 0.664062 -28.390625 0.765625 -28.5625 0.921875 -28.71875 C 1.078125 -28.875 1.316406 -29.003906 1.640625 -29.109375 C 1.960938 -29.222656 2.398438 -29.28125 2.953125 -29.28125 Z M 17.40625 -29.28125 "/></g></g></g><g fill="#004aad" fill-opacity="1"><g transform="translate(185.099712, 198.000529)"><g><path d="M 1 -16.796875 C 1 -17.253906 1.234375 -17.65625 1.703125 -18 C 2.171875 -18.34375 2.859375 -18.582031 3.765625 -18.71875 C 5.359375 -18.9375 6.710938 -19.175781 7.828125 -19.4375 C 8.953125 -19.707031 9.71875 -19.84375 10.125 -19.84375 C 10.28125 -19.84375 10.472656 -19.816406 10.703125 -19.765625 C 10.929688 -19.710938 11.148438 -19.570312 11.359375 -19.34375 C 11.578125 -19.113281 11.757812 -18.765625 11.90625 -18.296875 C 12.050781 -17.828125 12.125 -17.179688 12.125 -16.359375 L 12.125 0.59375 C 12.125 1.613281 11.945312 2.535156 11.59375 3.359375 C 11.25 4.179688 10.738281 4.898438 10.0625 5.515625 C 9.382812 6.128906 8.550781 6.601562 7.5625 6.9375 C 6.570312 7.269531 5.4375 7.4375 4.15625 7.4375 C 3.195312 7.4375 2.3125 7.328125 1.5 7.109375 C 0.6875 6.898438 -0.015625 6.613281 -0.609375 6.25 C -1.210938 5.894531 -1.6875 5.484375 -2.03125 5.015625 C -2.382812 4.546875 -2.5625 4.0625 -2.5625 3.5625 C -2.5625 2.84375 -2.273438 2.28125 -1.703125 1.875 C -1.128906 1.476562 -0.507812 1.28125 0.15625 1.28125 C 0.925781 1.28125 1.570312 1.523438 2.09375 2.015625 C 2.613281 2.515625 2.957031 3.039062 3.125 3.59375 L 3.203125 3.59375 C 3.253906 3.40625 3.285156 3.191406 3.296875 2.953125 C 3.304688 2.710938 3.3125 2.566406 3.3125 2.515625 L 3.3125 -13.6875 C 3.3125 -14.1875 3.191406 -14.550781 2.953125 -14.78125 C 2.710938 -15.007812 2.445312 -15.195312 2.15625 -15.34375 C 1.863281 -15.488281 1.597656 -15.65625 1.359375 -15.84375 C 1.117188 -16.03125 1 -16.347656 1 -16.796875 Z M 2.484375 -25.4375 C 2.484375 -25.945312 2.59375 -26.425781 2.8125 -26.875 C 3.039062 -27.332031 3.367188 -27.738281 3.796875 -28.09375 C 4.222656 -28.457031 4.75 -28.742188 5.375 -28.953125 C 6 -29.171875 6.703125 -29.28125 7.484375 -29.28125 C 8.253906 -29.28125 8.953125 -29.171875 9.578125 -28.953125 C 10.203125 -28.742188 10.726562 -28.457031 11.15625 -28.09375 C 11.582031 -27.738281 11.910156 -27.332031 12.140625 -26.875 C 12.367188 -26.425781 12.484375 -25.945312 12.484375 -25.4375 C 12.484375 -24.9375 12.367188 -24.457031 12.140625 -24 C 11.910156 -23.539062 11.582031 -23.128906 11.15625 -22.765625 C 10.726562 -22.410156 10.203125 -22.125 9.578125 -21.90625 C 8.953125 -21.695312 8.253906 -21.59375 7.484375 -21.59375 C 6.703125 -21.59375 6 -21.695312 5.375 -21.90625 C 4.75 -22.125 4.222656 -22.410156 3.796875 -22.765625 C 3.367188 -23.128906 3.039062 -23.539062 2.8125 -24 C 2.59375 -24.457031 2.484375 -24.9375 2.484375 -25.4375 Z M 2.484375 -25.4375 "/></g></g></g><g fill="#004aad" fill-opacity="1"><g transform="translate(198.698359, 198.000529)"><g><path d="M 13.921875 -9.84375 C 13.359375 -9.84375 12.820312 -9.757812 12.3125 -9.59375 C 11.8125 -9.4375 11.359375 -9.195312 10.953125 -8.875 C 10.554688 -8.5625 10.238281 -8.15625 10 -7.65625 C 9.757812 -7.164062 9.640625 -6.570312 9.640625 -5.875 C 9.640625 -5.1875 9.796875 -4.632812 10.109375 -4.21875 C 10.429688 -3.800781 10.863281 -3.59375 11.40625 -3.59375 C 11.664062 -3.59375 11.941406 -3.664062 12.234375 -3.8125 C 12.535156 -3.96875 12.8125 -4.265625 13.0625 -4.703125 C 13.3125 -5.140625 13.515625 -5.769531 13.671875 -6.59375 C 13.835938 -7.425781 13.921875 -8.507812 13.921875 -9.84375 Z M 2.484375 -16 C 2.484375 -17.195312 3.273438 -18.132812 4.859375 -18.8125 C 6.441406 -19.5 8.898438 -19.84375 12.234375 -19.84375 C 13.378906 -19.84375 14.566406 -19.757812 15.796875 -19.59375 C 17.023438 -19.4375 18.148438 -19.09375 19.171875 -18.5625 C 20.203125 -18.03125 21.050781 -17.269531 21.71875 -16.28125 C 22.382812 -15.289062 22.71875 -13.96875 22.71875 -12.3125 L 22.71875 -5.046875 C 22.71875 -4.453125 22.820312 -4.015625 23.03125 -3.734375 C 23.25 -3.453125 23.484375 -3.222656 23.734375 -3.046875 C 23.992188 -2.878906 24.226562 -2.6875 24.4375 -2.46875 C 24.65625 -2.257812 24.765625 -1.929688 24.765625 -1.484375 C 24.765625 -0.492188 24.132812 0 22.875 0 L 16.59375 0 C 15.6875 0 15.09375 -0.148438 14.8125 -0.453125 C 14.539062 -0.765625 14.335938 -1.304688 14.203125 -2.078125 C 13.878906 -1.597656 13.488281 -1.195312 13.03125 -0.875 C 12.582031 -0.5625 12.09375 -0.3125 11.5625 -0.125 C 11.03125 0.0625 10.476562 0.195312 9.90625 0.28125 C 9.332031 0.363281 8.773438 0.40625 8.234375 0.40625 C 6.953125 0.40625 5.851562 0.21875 4.9375 -0.15625 C 4.019531 -0.53125 3.253906 -1.015625 2.640625 -1.609375 C 2.023438 -2.210938 1.570312 -2.890625 1.28125 -3.640625 C 0.988281 -4.390625 0.84375 -5.148438 0.84375 -5.921875 C 0.84375 -7.359375 1.226562 -8.53125 2 -9.4375 C 2.769531 -10.34375 3.773438 -11.039062 5.015625 -11.53125 C 6.253906 -12.03125 7.640625 -12.363281 9.171875 -12.53125 C 10.710938 -12.707031 12.226562 -12.796875 13.71875 -12.796875 C 13.695312 -13.566406 13.640625 -14.195312 13.546875 -14.6875 C 13.453125 -15.1875 13.3125 -15.582031 13.125 -15.875 C 12.9375 -16.164062 12.691406 -16.363281 12.390625 -16.46875 C 12.097656 -16.582031 11.753906 -16.640625 11.359375 -16.640625 C 10.773438 -16.640625 10.316406 -16.484375 9.984375 -16.171875 C 9.648438 -15.867188 9.304688 -15.523438 8.953125 -15.140625 C 8.609375 -14.753906 8.207031 -14.40625 7.75 -14.09375 C 7.300781 -13.789062 6.664062 -13.640625 5.84375 -13.640625 C 4.75 -13.640625 3.914062 -13.859375 3.34375 -14.296875 C 2.769531 -14.734375 2.484375 -15.300781 2.484375 -16 Z M 2.484375 -16 "/></g></g></g><g fill="#004aad" fill-opacity="1"><g transform="translate(223.495896, 198.000529)"><g><path d="M 0.4375 -16.484375 C 0.4375 -17.066406 0.734375 -17.515625 1.328125 -17.828125 C 1.929688 -18.148438 2.648438 -18.445312 3.484375 -18.71875 C 4.066406 -18.90625 4.628906 -19.070312 5.171875 -19.21875 C 5.722656 -19.363281 6.21875 -19.484375 6.65625 -19.578125 C 7.09375 -19.671875 7.460938 -19.738281 7.765625 -19.78125 C 8.078125 -19.820312 8.289062 -19.84375 8.40625 -19.84375 C 9.125 -19.84375 9.59375 -19.570312 9.8125 -19.03125 C 10.039062 -18.5 10.207031 -17.890625 10.3125 -17.203125 C 11.144531 -18.128906 12.082031 -18.800781 13.125 -19.21875 C 14.164062 -19.632812 15.320312 -19.84375 16.59375 -19.84375 C 17.925781 -19.84375 19.078125 -19.648438 20.046875 -19.265625 C 21.023438 -18.878906 21.828125 -18.332031 22.453125 -17.625 C 23.085938 -16.914062 23.554688 -16.070312 23.859375 -15.09375 C 24.160156 -14.125 24.3125 -13.050781 24.3125 -11.875 L 24.3125 -4.5625 C 24.3125 -4.082031 24.390625 -3.726562 24.546875 -3.5 C 24.710938 -3.269531 24.890625 -3.078125 25.078125 -2.921875 C 25.265625 -2.765625 25.4375 -2.59375 25.59375 -2.40625 C 25.757812 -2.21875 25.84375 -1.9375 25.84375 -1.5625 C 25.84375 -1.132812 25.640625 -0.765625 25.234375 -0.453125 C 24.835938 -0.148438 24.375 0 23.84375 0 L 16 0 C 15.46875 0 15 -0.148438 14.59375 -0.453125 C 14.195312 -0.765625 14 -1.132812 14 -1.5625 C 14 -1.9375 14.078125 -2.21875 14.234375 -2.40625 C 14.398438 -2.59375 14.578125 -2.765625 14.765625 -2.921875 C 14.953125 -3.078125 15.125 -3.269531 15.28125 -3.5 C 15.4375 -3.726562 15.515625 -4.082031 15.515625 -4.5625 L 15.515625 -12.59375 C 15.515625 -12.863281 15.488281 -13.175781 15.4375 -13.53125 C 15.382812 -13.894531 15.285156 -14.242188 15.140625 -14.578125 C 14.992188 -14.910156 14.78125 -15.191406 14.5 -15.421875 C 14.21875 -15.648438 13.835938 -15.765625 13.359375 -15.765625 C 12.878906 -15.765625 12.5 -15.648438 12.21875 -15.421875 C 11.9375 -15.191406 11.722656 -14.910156 11.578125 -14.578125 C 11.429688 -14.242188 11.332031 -13.894531 11.28125 -13.53125 C 11.226562 -13.175781 11.203125 -12.863281 11.203125 -12.59375 L 11.203125 -4.5625 C 11.203125 -4.082031 11.28125 -3.726562 11.4375 -3.5 C 11.601562 -3.269531 11.773438 -3.078125 11.953125 -2.921875 C 12.140625 -2.765625 12.3125 -2.59375 12.46875 -2.40625 C 12.632812 -2.21875 12.71875 -1.9375 12.71875 -1.5625 C 12.71875 -1.132812 12.515625 -0.765625 12.109375 -0.453125 C 11.710938 -0.148438 11.25 0 10.71875 0 L 2.875 0 C 2.34375 0 1.875 -0.148438 1.46875 -0.453125 C 1.070312 -0.765625 0.875 -1.132812 0.875 -1.5625 C 0.875 -1.9375 0.953125 -2.21875 1.109375 -2.40625 C 1.273438 -2.59375 1.453125 -2.765625 1.640625 -2.921875 C 1.828125 -3.078125 2 -3.269531 2.15625 -3.5 C 2.320312 -3.726562 2.40625 -4.082031 2.40625 -4.5625 L 2.40625 -13.3125 C 2.40625 -13.957031 2.300781 -14.40625 2.09375 -14.65625 C 1.894531 -14.914062 1.671875 -15.109375 1.421875 -15.234375 C 1.171875 -15.367188 0.941406 -15.503906 0.734375 -15.640625 C 0.535156 -15.773438 0.4375 -16.054688 0.4375 -16.484375 Z M 0.4375 -16.484375 "/></g></g></g><g fill="#004aad" fill-opacity="1"><g transform="translate(249.493312, 198.000529)"><g><path d="M 12.40625 -16.796875 C 11.84375 -16.796875 11.398438 -16.566406 11.078125 -16.109375 C 10.753906 -15.660156 10.5 -15.113281 10.3125 -14.46875 C 10.132812 -13.832031 10.015625 -13.160156 9.953125 -12.453125 C 9.898438 -11.753906 9.875 -11.148438 9.875 -10.640625 C 9.875 -8.828125 10.070312 -7.347656 10.46875 -6.203125 C 10.875 -5.054688 11.519531 -4.484375 12.40625 -4.484375 C 13.226562 -4.484375 13.851562 -5.03125 14.28125 -6.125 C 14.707031 -7.21875 14.921875 -8.722656 14.921875 -10.640625 C 14.921875 -11.390625 14.878906 -12.128906 14.796875 -12.859375 C 14.722656 -13.585938 14.59375 -14.242188 14.40625 -14.828125 C 14.21875 -15.421875 13.957031 -15.894531 13.625 -16.25 C 13.289062 -16.613281 12.882812 -16.796875 12.40625 -16.796875 Z M 0.6875 -10.3125 C 0.6875 -12 1.003906 -13.441406 1.640625 -14.640625 C 2.273438 -15.835938 3.140625 -16.820312 4.234375 -17.59375 C 5.328125 -18.375 6.617188 -18.941406 8.109375 -19.296875 C 9.609375 -19.660156 11.210938 -19.84375 12.921875 -19.84375 C 14.492188 -19.84375 16.003906 -19.78125 17.453125 -19.65625 C 18.910156 -19.539062 20.53125 -19.46875 22.3125 -19.4375 C 23.039062 -19.4375 23.609375 -19.375 24.015625 -19.25 C 24.429688 -19.132812 24.738281 -18.984375 24.9375 -18.796875 C 25.132812 -18.609375 25.257812 -18.398438 25.3125 -18.171875 C 25.375 -17.953125 25.40625 -17.722656 25.40625 -17.484375 C 25.40625 -16.816406 25.132812 -16.332031 24.59375 -16.03125 C 24.0625 -15.738281 23.289062 -15.59375 22.28125 -15.59375 C 22.914062 -14.90625 23.378906 -14.109375 23.671875 -13.203125 C 23.972656 -12.296875 24.125 -11.375 24.125 -10.4375 C 24.125 -8.894531 23.726562 -7.484375 22.9375 -6.203125 C 22.15625 -4.921875 21.082031 -3.929688 19.71875 -3.234375 L 19.71875 -3.15625 C 21.101562 -2.945312 22.257812 -2.484375 23.1875 -1.765625 C 24.125 -1.046875 24.59375 -0.03125 24.59375 1.28125 C 24.59375 2.15625 24.363281 2.96875 23.90625 3.71875 C 23.457031 4.46875 22.742188 5.117188 21.765625 5.671875 C 20.796875 6.234375 19.550781 6.664062 18.03125 6.96875 C 16.519531 7.28125 14.707031 7.4375 12.59375 7.4375 C 10.195312 7.4375 8.242188 7.3125 6.734375 7.0625 C 5.234375 6.8125 4.046875 6.476562 3.171875 6.0625 C 2.304688 5.644531 1.710938 5.175781 1.390625 4.65625 C 1.078125 4.132812 0.921875 3.609375 0.921875 3.078125 C 0.921875 2.546875 1.070312 2.078125 1.375 1.671875 C 1.6875 1.273438 2.109375 0.9375 2.640625 0.65625 C 3.171875 0.375 3.796875 0.160156 4.515625 0.015625 C 5.234375 -0.128906 6.007812 -0.203125 6.84375 -0.203125 C 7.507812 -0.203125 8.054688 -0.160156 8.484375 -0.078125 C 8.910156 0.00390625 9.226562 0.101562 9.4375 0.21875 C 9.65625 0.34375 9.800781 0.476562 9.875 0.625 C 9.957031 0.769531 10 0.910156 10 1.046875 C 10 1.285156 9.910156 1.476562 9.734375 1.625 C 9.566406 1.769531 9.484375 1.9375 9.484375 2.125 C 9.484375 2.5 9.726562 2.820312 10.21875 3.09375 C 10.707031 3.375 11.472656 3.515625 12.515625 3.515625 C 13.878906 3.515625 14.898438 3.25 15.578125 2.71875 C 16.253906 2.1875 16.59375 1.570312 16.59375 0.875 C 16.59375 0.238281 16.375 -0.265625 15.9375 -0.640625 C 15.5 -1.015625 15.015625 -1.320312 14.484375 -1.5625 C 13.890625 -1.507812 13.351562 -1.445312 12.875 -1.375 C 12.394531 -1.3125 11.890625 -1.28125 11.359375 -1.28125 C 10.023438 -1.28125 8.71875 -1.453125 7.4375 -1.796875 C 6.15625 -2.140625 5.015625 -2.6875 4.015625 -3.4375 C 3.015625 -4.1875 2.207031 -5.125 1.59375 -6.25 C 0.988281 -7.382812 0.6875 -8.738281 0.6875 -10.3125 Z M 0.6875 -10.3125 "/></g></g></g><g fill="#004aad" fill-opacity="1"><g transform="translate(275.090768, 198.000529)"><g><path d="M 12.953125 -16.40625 C 12.234375 -16.40625 11.664062 -16.148438 11.25 -15.640625 C 10.84375 -15.128906 10.539062 -14.519531 10.34375 -13.8125 C 10.144531 -13.113281 10.015625 -12.382812 9.953125 -11.625 C 9.898438 -10.863281 9.875 -10.226562 9.875 -9.71875 C 9.875 -8.363281 9.960938 -7.257812 10.140625 -6.40625 C 10.316406 -5.550781 10.550781 -4.867188 10.84375 -4.359375 C 11.132812 -3.847656 11.46875 -3.5 11.84375 -3.3125 C 12.21875 -3.132812 12.601562 -3.046875 13 -3.046875 C 13.394531 -3.046875 13.78125 -3.132812 14.15625 -3.3125 C 14.53125 -3.5 14.863281 -3.847656 15.15625 -4.359375 C 15.445312 -4.867188 15.679688 -5.550781 15.859375 -6.40625 C 16.035156 -7.257812 16.125 -8.363281 16.125 -9.71875 C 16.125 -11.15625 16.019531 -12.304688 15.8125 -13.171875 C 15.613281 -14.046875 15.367188 -14.722656 15.078125 -15.203125 C 14.785156 -15.679688 14.445312 -16 14.0625 -16.15625 C 13.675781 -16.320312 13.304688 -16.40625 12.953125 -16.40625 Z M 0.6875 -9.71875 C 0.6875 -11.320312 1.035156 -12.75 1.734375 -14 C 2.441406 -15.25 3.375 -16.304688 4.53125 -17.171875 C 5.695312 -18.046875 7.019531 -18.707031 8.5 -19.15625 C 9.976562 -19.613281 11.476562 -19.84375 13 -19.84375 C 14.519531 -19.84375 16.015625 -19.613281 17.484375 -19.15625 C 18.953125 -18.707031 20.265625 -18.046875 21.421875 -17.171875 C 22.578125 -16.304688 23.515625 -15.25 24.234375 -14 C 24.953125 -12.75 25.3125 -11.320312 25.3125 -9.71875 C 25.3125 -8.113281 24.957031 -6.6875 24.25 -5.4375 C 23.550781 -4.1875 22.617188 -3.125 21.453125 -2.25 C 20.296875 -1.382812 18.976562 -0.722656 17.5 -0.265625 C 16.019531 0.179688 14.519531 0.40625 13 0.40625 C 11.476562 0.40625 9.976562 0.179688 8.5 -0.265625 C 7.019531 -0.722656 5.695312 -1.382812 4.53125 -2.25 C 3.375 -3.125 2.441406 -4.1875 1.734375 -5.4375 C 1.035156 -6.6875 0.6875 -8.113281 0.6875 -9.71875 Z M 0.6875 -9.71875 "/></g></g></g><g fill="#004aad" fill-opacity="1"><g transform="translate(301.088184, 198.000529)"><g><path d="M 0.4375 -27.359375 C 0.4375 -27.816406 0.65625 -28.210938 1.09375 -28.546875 C 1.539062 -28.878906 2.253906 -29.109375 3.234375 -29.234375 C 4.835938 -29.453125 6.171875 -29.707031 7.234375 -30 C 8.304688 -30.289062 9.082031 -30.425781 9.5625 -30.40625 C 9.71875 -30.40625 9.910156 -30.375 10.140625 -30.3125 C 10.367188 -30.257812 10.585938 -30.117188 10.796875 -29.890625 C 11.015625 -29.671875 11.195312 -29.328125 11.34375 -28.859375 C 11.488281 -28.390625 11.5625 -27.742188 11.5625 -26.921875 L 11.5625 -4.5625 C 11.5625 -4.082031 11.664062 -3.726562 11.875 -3.5 C 12.09375 -3.269531 12.332031 -3.078125 12.59375 -2.921875 C 12.863281 -2.765625 13.101562 -2.597656 13.3125 -2.421875 C 13.53125 -2.242188 13.640625 -1.957031 13.640625 -1.5625 C 13.640625 -1.132812 13.4375 -0.765625 13.03125 -0.453125 C 12.632812 -0.148438 12.171875 0 11.640625 0 L 2.6875 0 C 2.144531 0 1.675781 -0.148438 1.28125 -0.453125 C 0.882812 -0.765625 0.6875 -1.132812 0.6875 -1.5625 C 0.6875 -1.957031 0.789062 -2.242188 1 -2.421875 C 1.207031 -2.597656 1.445312 -2.765625 1.71875 -2.921875 C 1.988281 -3.078125 2.226562 -3.269531 2.4375 -3.5 C 2.65625 -3.726562 2.765625 -4.082031 2.765625 -4.5625 L 2.765625 -24.234375 C 2.765625 -24.742188 2.644531 -25.113281 2.40625 -25.34375 C 2.164062 -25.570312 1.894531 -25.757812 1.59375 -25.90625 C 1.300781 -26.050781 1.035156 -26.21875 0.796875 -26.40625 C 0.554688 -26.59375 0.4375 -26.910156 0.4375 -27.359375 Z M 0.4375 -27.359375 "/></g></g></g><g fill="#004aad" fill-opacity="1"><g transform="translate(314.686831, 198.000529)"><g><path d="M 9.203125 -19.4375 C 10.691406 -19.4375 11.4375 -18.890625 11.4375 -17.796875 C 11.4375 -17.453125 11.367188 -17.195312 11.234375 -17.03125 C 11.109375 -16.875 10.96875 -16.710938 10.8125 -16.546875 C 10.664062 -16.390625 10.523438 -16.191406 10.390625 -15.953125 C 10.265625 -15.710938 10.203125 -15.351562 10.203125 -14.875 C 10.203125 -13.28125 10.359375 -11.785156 10.671875 -10.390625 C 10.992188 -9.003906 11.363281 -7.8125 11.78125 -6.8125 C 12.195312 -5.8125 12.601562 -5.023438 13 -4.453125 C 13.394531 -3.878906 13.675781 -3.59375 13.84375 -3.59375 C 14.101562 -3.59375 14.40625 -3.910156 14.75 -4.546875 C 15.101562 -5.191406 15.429688 -6.054688 15.734375 -7.140625 C 16.046875 -8.222656 16.300781 -9.460938 16.5 -10.859375 C 16.695312 -12.253906 16.796875 -13.726562 16.796875 -15.28125 C 16.796875 -15.789062 16.695312 -16.132812 16.5 -16.3125 C 16.300781 -16.5 16.085938 -16.644531 15.859375 -16.75 C 15.628906 -16.863281 15.414062 -17 15.21875 -17.15625 C 15.019531 -17.320312 14.921875 -17.628906 14.921875 -18.078125 C 14.921875 -18.484375 15.019531 -18.8125 15.21875 -19.0625 C 15.414062 -19.3125 15.890625 -19.4375 16.640625 -19.4375 L 21.234375 -19.4375 C 22.566406 -19.4375 23.234375 -18.972656 23.234375 -18.046875 C 23.234375 -17.773438 23.144531 -17.539062 22.96875 -17.34375 C 22.800781 -17.144531 22.617188 -16.953125 22.421875 -16.765625 C 22.222656 -16.578125 22.035156 -16.375 21.859375 -16.15625 C 21.679688 -15.945312 21.59375 -15.679688 21.59375 -15.359375 C 21.59375 -14.796875 21.476562 -13.84375 21.25 -12.5 C 21.03125 -11.15625 20.671875 -9.640625 20.171875 -7.953125 C 19.679688 -6.273438 19.039062 -4.519531 18.25 -2.6875 C 17.46875 -0.863281 16.535156 0.789062 15.453125 2.28125 C 14.378906 3.769531 13.128906 5 11.703125 5.96875 C 10.273438 6.945312 8.664062 7.4375 6.875 7.4375 C 6.425781 7.4375 5.941406 7.382812 5.421875 7.28125 C 4.898438 7.175781 4.40625 7.007812 3.9375 6.78125 C 3.46875 6.550781 3.078125 6.253906 2.765625 5.890625 C 2.460938 5.535156 2.3125 5.09375 2.3125 4.5625 C 2.3125 3.757812 2.613281 3.125 3.21875 2.65625 C 3.820312 2.1875 4.507812 1.953125 5.28125 1.953125 C 5.726562 1.953125 6.125 2.019531 6.46875 2.15625 C 6.820312 2.289062 7.140625 2.429688 7.421875 2.578125 C 7.703125 2.722656 7.945312 2.863281 8.15625 3 C 8.375 3.132812 8.578125 3.203125 8.765625 3.203125 C 9.023438 3.203125 9.347656 3.070312 9.734375 2.8125 C 10.117188 2.5625 10.492188 2.265625 10.859375 1.921875 C 11.222656 1.578125 11.550781 1.207031 11.84375 0.8125 C 12.132812 0.425781 12.332031 0.0859375 12.4375 -0.203125 C 12.0625 -0.117188 11.734375 -0.0625 11.453125 -0.03125 C 11.179688 -0.0078125 10.894531 0 10.59375 0 C 9.320312 0 8.171875 -0.195312 7.140625 -0.59375 C 6.109375 -1 5.1875 -1.757812 4.375 -2.875 C 3.5625 -4 2.851562 -5.539062 2.25 -7.5 C 1.65625 -9.457031 1.160156 -12 0.765625 -15.125 C 0.710938 -15.601562 0.609375 -15.984375 0.453125 -16.265625 C 0.304688 -16.546875 0.160156 -16.769531 0.015625 -16.9375 C -0.128906 -17.113281 -0.253906 -17.28125 -0.359375 -17.4375 C -0.460938 -17.601562 -0.515625 -17.804688 -0.515625 -18.046875 C -0.515625 -18.972656 0.160156 -19.4375 1.515625 -19.4375 Z M 9.203125 -19.4375 "/></g></g></g></svg>